HIERARCHY
ROOT joint_Root
{
	OFFSET 0.0 0.0 0.0
	CHANNELS 6 Xposition Yposition Zposition Zrotation Xrotation Yrotation 
	JOINT Hips
	{
		OFFSET -0.726466 93.3139 -2.00062
		CHANNELS 6 Xposition Yposition Zposition Zrotation Xrotation Yrotation 
		JOINT Spine
		{
			OFFSET 15.7357 0.0 0.0
			CHANNELS 6 Xposition Yposition Zposition Zrotation Xrotation Yrotation 
			JOINT Chest
			{
				OFFSET 8.98455 -0.406207 0.0
				CHANNELS 6 Xposition Yposition Zposition Zrotation Xrotation Yrotation 
				JOINT Neck
				{
					OFFSET 16.3773 0.0 0.0
					CHANNELS 6 Xposition Yposition Zposition Zrotation Xrotation Yrotation 
					JOINT Head
					{
						OFFSET 6.45672 0.0 0.0
						CHANNELS 6 Xposition Yposition Zposition Zrotation Xrotation Yrotation 
						End Site
						{
							OFFSET 0.0 0.0 0.0
						}
					}
				}
				JOINT Shoulder_L
				{
					OFFSET 12.9942 -0.242716 4.98039
					CHANNELS 6 Xposition Yposition Zposition Zrotation Xrotation Yrotation 
					JOINT UpperArm_L
					{
						OFFSET 5.34809 0.0 0.0
						CHANNELS 6 Xposition Yposition Zposition Zrotation Xrotation Yrotation 
						JOINT LowerArm_L
						{
							OFFSET 24.3286 1.87007e-05 0.0
							CHANNELS 6 Xposition Yposition Zposition Zrotation Xrotation Yrotation 
							JOINT Hand_L
							{
								OFFSET 22.2916 0.0 0.0
								CHANNELS 6 Xposition Yposition Zposition Zrotation Xrotation Yrotation 
								End Site
								{
									OFFSET 0.0 0.0 0.0
								}
							}
						}
					}
				}
				JOINT Shoulder_R
				{
					OFFSET 12.9945 -0.242716 -4.98039
					CHANNELS 6 Xposition Yposition Zposition Zrotation Xrotation Yrotation 
					JOINT UpperArm_R
					{
						OFFSET -5.34813 0.0 0.0
						CHANNELS 6 Xposition Yposition Zposition Zrotation Xrotation Yrotation 
						JOINT LowerArm_R
						{
							OFFSET -24.3289 0.000322201 0.0
							CHANNELS 6 Xposition Yposition Zposition Zrotation Xrotation Yrotation 
							JOINT Hand_R
							{
								OFFSET -22.2915 -0.000108084 0.0
								CHANNELS 6 Xposition Yposition Zposition Zrotation Xrotation Yrotation 
								End Site
								{
									OFFSET 0.0 0.0 0.0
								}
							}
						}
					}
				}
			}
		}
		JOINT UpperLeg_L
		{
			OFFSET -2.19248 -6.46944 0.0
			CHANNELS 6 Xposition Yposition Zposition Zrotation Xrotation Yrotation 
			JOINT LowerLeg_L
			{
				OFFSET 39.0811 0.0 -1.23785e-05
				CHANNELS 6 Xposition Yposition Zposition Zrotation Xrotation Yrotation 
				JOINT Foot_L
				{
					OFFSET 40.9854 0.0 -1.26872e-05
					CHANNELS 6 Xposition Yposition Zposition Zrotation Xrotation Yrotation 
					JOINT Toes_L
					{
						OFFSET 11.7543 0.0 0.0
						CHANNELS 6 Xposition Yposition Zposition Zrotation Xrotation Yrotation 
						End Site
						{
							OFFSET 0.0 0.0 0.0
						}
					}
				}
			}
		}
		JOINT UpperLeg_R
		{
			OFFSET -2.19251 6.46944 0.0
			CHANNELS 6 Xposition Yposition Zposition Zrotation Xrotation Yrotation 
			JOINT LowerLeg_R
			{
				OFFSET -39.0811 -0.00228153 -0.0401928
				CHANNELS 6 Xposition Yposition Zposition Zrotation Xrotation Yrotation 
				JOINT Foot_R
				{
					OFFSET -40.9854 0.0 0.0
					CHANNELS 6 Xposition Yposition Zposition Zrotation Xrotation Yrotation 
					JOINT Toes_R
					{
						OFFSET -11.7543 0.0 0.0
						CHANNELS 6 Xposition Yposition Zposition Zrotation Xrotation Yrotation 
						End Site
						{
							OFFSET 0.0 0.0 0.0
						}
					}
				}
			}
		}
	}
}
MOTION
Frames:	4
Frame Time:	0.0333333
0.000000 0.000000 0.000000 0.000000 0.000000 -0.000000 113.710000 88.438000 165.457000 -86.711400 32.059600 -179.068000 15.735700 0.000005 -0.000001 112.166000 83.727200 -112.579000 8.984550 -0.406207 -0.000000 3.880620 4.740820 -0.985435 16.377300 -0.000001 -0.000001 1.017770 4.594630 -0.732478 6.456720 -0.000001 -0.000000 -0.176678 4.171370 -0.920112 12.994200 -0.242716 4.980390 -88.065900 -5.044940 -68.992400 5.348090 -0.000007 -0.000001 -79.635100 13.450600 4.887040 24.328600 0.000019 0.000005 1.455010 10.114700 -8.229570 22.291600 -0.000001 0.000005 6.030990 5.317610 -0.428353 12.994500 -0.242716 -4.980390 89.524100 2.140290 -77.460300 -5.348130 -0.000001 -0.000004 -60.070500 23.062300 -27.218800 -24.328900 0.000322 -0.000009 2.679730 5.443850 -26.267500 -22.291500 -0.000108 -0.000004 13.195800 5.420990 -3.632550 -2.192480 -6.469440 -0.000000 172.213000 -6.588130 -26.321900 39.081100 -0.000007 -0.000012 0.107454 -0.220054 26.026500 40.985400 -0.000006 -0.000013 12.199400 -16.689100 -48.384100 11.754300 -0.000000 0.000003 -0.008202 -0.089687 -20.229100 -2.192510 6.469440 -0.000001 173.314000 21.602200 -173.696000 -39.081100 -0.002282 -0.040193 0.051439 -0.055331 41.038300 -40.985400 0.000008 0.000006 -3.983990 0.852157 -59.668300 -11.754300 -0.000006 -0.000006 -0.169309 -0.591511 -41.718200
0.000000 0.000000 0.000000 0.000000 0.000000 -0.000000 115.796000 88.647100 161.758000 -86.323200 30.171600 -177.570000 15.735700 0.000005 -0.000001 107.052000 83.437800 -107.364000 8.984550 -0.406207 -0.000000 4.800620 3.849320 -0.784809 16.377300 -0.000001 -0.000001 0.977094 4.203510 -1.016290 6.456720 -0.000001 -0.000000 -0.324867 4.192790 -1.651890 12.994200 -0.242716 4.980390 -88.122600 -5.049330 -69.573000 5.348090 -0.000007 -0.000001 -81.514400 16.972600 3.484760 24.328600 0.000019 0.000005 1.523900 9.090200 -9.558120 22.291600 -0.000001 0.000005 4.135900 5.335740 -0.954421 12.994500 -0.242716 -4.980390 89.651400 1.488170 -76.813400 -5.348130 -0.000001 -0.000004 -63.209500 25.602900 -23.532500 -24.328900 0.000322 -0.000009 3.798010 7.220160 -27.849300 -22.291500 -0.000108 -0.000004 12.236200 5.425050 -3.769790 -2.192480 -6.469440 -0.000000 172.654000 -7.227930 -23.881000 39.081100 -0.000007 -0.000012 0.028188 -0.047109 30.893800 40.985400 -0.000006 -0.000013 10.819700 -14.556300 -54.293100 11.754300 -0.000000 0.000003 -0.006883 -0.078662 -19.779000 -2.192510 6.469440 -0.000001 172.942000 19.854500 -175.540000 -39.081100 -0.002282 -0.040193 0.160943 -0.139046 48.595500 -40.985400 0.000008 0.000006 -3.445460 0.272836 -48.587300 -11.754300 -0.000006 -0.000006 -0.214041 -0.667933 -45.308900
0.000000 0.000000 0.000000 0.000000 0.000000 -0.000000 117.455000 88.761300 158.302000 -86.085300 28.430000 -176.575000 15.735700 0.000005 -0.000001 103.278000 83.277800 -103.440000 8.984550 -0.406207 -0.000000 5.329560 3.084370 -0.468209 16.377300 -0.000001 -0.000001 1.153040 4.068440 -1.296880 6.456720 -0.000001 -0.000000 -0.078827 4.230370 -2.567700 12.994200 -0.242716 4.980390 -88.173300 -4.980950 -69.830600 5.348090 -0.000007 -0.000001 -82.751900 21.917500 0.946259 24.328600 0.000019 0.000005 1.500300 7.409760 -11.480600 22.291600 -0.000001 0.000005 2.947830 5.354420 -1.510760 12.994500 -0.242716 -4.980390 89.788600 0.872030 -76.374600 -5.348130 -0.000001 -0.000004 -65.851700 28.256500 -19.829100 -24.328900 0.000322 -0.000009 3.948660 7.293760 -28.539500 -22.291500 -0.000108 -0.000004 11.423900 5.429110 -3.908540 -2.192480 -6.469440 -0.000000 172.803000 -9.101460 -21.353600 39.081100 -0.000007 -0.000012 -0.007693 0.011507 33.768300 40.985400 -0.000006 -0.000013 10.489200 -11.881400 -59.046200 11.754300 -0.000000 0.000003 -0.004247 -0.053997 -18.773400 -2.192510 6.469440 -0.000001 173.685000 16.223600 179.877000 -39.081100 -0.002282 -0.040193 0.218855 -0.139809 57.042900 -40.985400 0.000008 0.000006 -2.902010 -0.677021 -37.198800 -11.754300 -0.000006 -0.000006 -0.085517 -0.407103 -33.499200
0.000000 0.000000 0.000000 0.000000 0.000000 -0.000000 118.771000 88.758600 155.168000 -86.675000 26.364300 -175.556000 15.735700 0.000005 -0.000001 98.839900 83.208900 -99.096100 8.984550 -0.406207 -0.000000 5.662580 2.086860 -0.615174 16.377300 -0.000001 -0.000001 1.406950 3.888110 -1.512580 6.456720 -0.000001 -0.000000 0.394948 4.396290 -2.946530 12.994200 -0.242716 4.980390 -88.400900 -4.410510 -70.047700 5.348090 -0.000007 -0.000001 -82.152700 26.756900 -2.211580 24.328600 0.000019 0.000005 1.709980 6.282200 -15.260800 22.291600 -0.000001 0.000005 2.398480 5.364250 -1.809420 12.994500 -0.242716 -4.980390 89.741700 1.030760 -75.929600 -5.348130 -0.000001 -0.000004 -67.483100 30.896900 -16.661300 -24.328900 0.000322 -0.000009 3.656090 6.920220 -27.945100 -22.291500 -0.000108 -0.000004 10.004500 5.434570 -4.097180 -2.192480 -6.469440 -0.000000 172.332000 -9.808480 -18.769900 39.081100 -0.000007 -0.000012 0.013293 -0.018734 35.354800 40.985400 -0.000006 -0.000013 10.412100 -10.015900 -62.677800 11.754300 -0.000000 0.000003 -0.003454 -0.045644 -18.433200 -2.192510 6.469440 -0.000001 174.007000 12.756400 175.091000 -39.081100 -0.002282 -0.040193 0.162682 -0.076627 64.341200 -40.985400 0.000008 0.000006 -1.840750 0.117010 -32.826300 -11.754300 -0.000006 -0.000006 -0.034061 -0.235506 -26.231800
